<?xml version="1.0" encoding="UTF-8" standalone="no"?>
<!-- Created with Inkscape (http://www.inkscape.org/) -->

<svg
   version="1.1"
   id="svg1"
   width="1536"
   height="1024"
   viewBox="0 0 1536 1024"
   xmlns="http://www.w3.org/2000/svg"
   xmlns:svg="http://www.w3.org/2000/svg">
  <defs
     id="defs1" />
  <path
     style="fill:#1a1a1a;fill-opacity:1;stroke:#000000;stroke-width:1.4;stroke-linecap:round;stroke-linejoin:round;stroke-dasharray:none;stroke-opacity:1"
     d="m 874.55553,604.94353 c -1.02543,-4.80107 -3.61303,-16.37921 -5.75021,-25.72921 -13.66247,-59.77213 -17.42541,-78.31092 -20.20864,-99.56168 -3.53442,-26.98621 -3.10808,-43.22373 1.36101,-51.83592 2.04538,-3.94155 12.90888,-14.86929 22.83463,-22.96965 3.47268,-2.83404 13.95312,-10.57695 23.28987,-17.20648 10.19089,-7.23599 18.12099,-13.63434 19.84069,-16.00844 4.0579,-5.60171 5.6178,-12.79733 4.1824,-19.29283 -0.6229,-2.81875 -2.7443,-12.325 -4.7141,-21.125 -7.9877,-35.68311 -9.39991,-44.09256 -11.5032,-68.5 -1.1612,-13.475 -1.90281,-27.85085 -1.64803,-31.94633 0.46324,-7.44633 0.46324,-7.44633 -1.91948,-4.5 -4.92645,6.09177 -9.37393,13.07049 -10.22838,16.04979 -0.72379,2.52369 -0.24486,4.60875 2.63919,11.48987 3.96344,9.45648 4.32451,14.44925 1.82451,25.22903 -2.1299,9.18394 -5.37004,15.94472 -13.32137,27.79599 -11.88298,17.71128 -15.36294,26.63191 -11.78497,30.20988 2.41265,2.41265 5.51401,2.06708 10.64353,-1.18596 13.64217,-8.65161 24.45844,-38.37511 20.97581,-57.64227 -2.29121,-12.67581 -2.29619,-12.40678 0.13878,-7.5 1.87636,3.78111 2.22512,6.09752 2.18311,14.5 -0.0839,16.77335 -6.48088,36.01431 -15.19165,45.69347 -8.5825,9.53663 -15.64567,12.1764 -20.04636,7.49208 -4.47779,-4.7664 -1.67285,-13.19591 10.18863,-30.61925 9.23941,-13.57177 10.74426,-16.40042 13.5244,-25.42164 3.48566,-11.31056 2.23683,-26.50857 -2.32199,-28.25796 -0.75429,-0.28945 -3.10257,0.3657 -5.2184,1.45589 -8.49441,4.37677 -14.22345,13.71457 -15.09055,24.59621 -0.39584,4.96755 -0.0549,6.96122 1.88951,11.04928 1.30487,2.74344 3.12819,5.13361 4.05181,5.31148 1.93394,0.37244 5.80228,-3.11312 5.80228,-5.22813 0,-2.83054 -3.16103,-4.80698 -6.75523,-4.22372 -2.94721,0.47826 -3.23896,0.35022 -2.16115,-0.94847 1.90636,-2.29702 6.89003,-1.34138 9.19777,1.76371 2.45032,3.29695 1.7225,7.13317 -1.78998,9.43464 -3.56655,2.33689 -7.18719,1.10822 -9.20532,-3.12384 -0.91108,-1.91056 -1.92476,-3.47375 -2.25261,-3.47375 -1.43657,0 -12.6607,12.64817 -23.07269,26 -6.21904,7.975 -15.16687,18.91472 -19.88407,24.31048 -20.18667,23.09052 -23.66723,27.59664 -27.82196,36.01978 -8.87231,17.98743 -12.33303,38.06887 -10.23374,59.38321 0.63754,6.47298 1.33733,12.05734 1.55509,12.40968 0.21777,0.35235 1.63973,7.78128 3.15991,16.50874 2.6756,15.36072 2.76278,17.00325 2.72631,51.36811 -0.0322,30.3257 -0.36198,38.19647 -2.2627,54 -2.5719,21.3841 -4.10258,30 -5.32974,30 -1.0672,0 -1.05896,-0.4639 0.0977,-5.5 0.50527,-2.2 1.93658,-12.775 3.18069,-23.5 1.93965,-16.721 2.26841,-24.70171 2.30688,-56 0.0441,-35.90912 -7.5e-4,-36.74283 -2.77282,-51.5 -4.73061,-25.18355 -5.8816,-35.16384 -5.203,-45.1153 1.76783,-25.92474 9.73326,-45.80657 25.65268,-64.02942 24.195,-27.69585 26.98497,-31.06073 40.0936,-48.35528 3.1266,-4.125 8.1799,-9.95963 11.22956,-12.96584 5.41628,-5.33911 5.54484,-5.59574 5.54484,-11.0685 0,-12.09725 5.16128,-21.52819 15.40523,-28.14918 5.81392,-3.75772 6.00494,-4.01744 5.73225,-7.7942 -0.16311,-2.25905 0.52522,-5.72385 1.63195,-8.21461 2.5198,-5.671 13.30049,-19.14519 17.12617,-21.40509 1.6608,-0.98105 3.5496,-3.06322 4.1974,-4.62704 0.6477,-1.56383 2.3225,-3.74381 3.7217,-4.8444 4.1355,-3.25303 5.1334,-1.09246 6.7781,14.67647 2.569,24.6299 4.1378,32.4599 7.2915,36.39239 7.2951,9.09673 8.4409,15.77152 6.523,38 -1.5573,18.04961 -4.1086,31.3344 -8.8343,46 -1.8608,5.775 -3.6954,12.975 -4.0768,16 -0.9474,7.51483 -3.556,13.08976 -8.2616,17.65633 -2.1784,2.11402 -10.20981,8.21718 -17.84764,13.56258 -28.77073,20.13544 -42.66503,32.81034 -46.00269,41.96536 -3.26266,8.94931 -2.76777,31.87371 1.21574,56.31573 2.6283,16.12678 8.48289,44.52205 14.02036,68 8.78069,37.22865 12.58884,55.69079 11.67562,56.60401 -0.47254,0.47254 -1.68768,-3.04699 -2.71882,-7.8748 z m 49.36295,-303.72921 c 0.5897,-6.05 1.3597,-17.79651 1.7113,-26.10336 0.6296,-14.87728 0.5999,-15.18414 -1.9815,-20.5 -1.4414,-2.96815 -4.236,-11.24664 -6.2103,-18.39664 -1.9743,-7.15 -4.1229,-14.23652 -4.7746,-15.74783 -1.185,-2.74782 -1.185,-2.74782 -4.935,1.88792 -3.68618,4.55682 -3.75002,4.7828 -3.75002,13.27406 0,4.75107 0.44282,12.22651 0.98403,16.61208 0.54122,4.38558 1.62959,15.39877 2.41859,24.47377 0.9418,10.83224 2.6828,21.99601 5.0684,32.5 5.3015,23.3432 7.578,32.80769 8.2981,34.5 0.351,0.825 0.9669,-5.925 1.3686,-15 0.4017,-9.075 1.2128,-21.45 1.8024,-27.5 z m 3.9257,29.75 c 4.1374,-17.30963 6.2187,-32.40712 6.4449,-46.75 0.1817,-11.5168 0.068,-12.2416 -2.8107,-18 l -3,-6 -0.6655,14 c -0.366,7.7 -1.1864,18.725 -1.8231,24.5 -1.2863,11.66738 -2.5665,45 -1.7282,45 0.2943,0 1.9065,-5.7375 3.5826,-12.75 z m -5.7703,-89.83814 c -0.5028,-2.70152 -1.4198,-10.08686 -2.0378,-16.41186 -1.7217,-17.62249 -2.1284,-18.5182 -5.9631,-13.1329 -1.9962,2.80344 -2.0015,2.95331 -0.2369,6.75 0.9925,2.13559 3.3039,9.39708 5.1364,16.13663 3.4167,12.56605 4.7227,15.36982 3.1014,6.65813 z m -14.2887,-21.93832 c -0.3078,-0.30789 -0.867,0.24711 -1.2425,1.23333 -0.54271,1.4252 -0.42785,1.54006 0.5598,0.5598 0.6834,-0.67834 0.9906,-1.48524 0.6827,-1.79313 z M 763.3721,607.37658 c -2.87287,-2.47114 -2.87287,-2.47114 -3.54219,-19.8167 -1.12525,-29.16137 -6.03482,-56.78021 -11.2577,-63.33032 -2.19401,-2.75155 -2.19401,-2.75155 -7.37713,-0.12506 -15.29873,7.75245 -33.16249,7.41968 -41.09593,-0.76555 -6.70969,-6.92265 -4.35459,-14.91252 4.90834,-16.65197 8.94507,-1.67976 25.92224,2.29257 36.63844,8.57267 2.30371,1.35007 4.47124,2.45467 4.81673,2.45467 0.34549,0 1.61388,-2.1375 2.81865,-4.75 1.87526,-4.06645 2.18644,-6.47687 2.1624,-16.75 -0.0198,-8.45163 -0.57847,-14.06988 -1.8894,-19 -2.44701,-9.20268 -7.49312,-21.06099 -12.67083,-29.77636 -7.70453,-12.96866 -23.87127,-27.68905 -38.40512,-34.96922 -2.75,-1.37751 -11.75,-5.31999 -20,-8.76107 -27.60015,-11.51205 -30.19946,-12.93866 -41.5,-22.77705 -15.45588,-13.45607 -32.25193,-22.2163 -42.59548,-22.2163 -5.23181,0 -5.94425,2.02363 -2.90072,8.23933 6.2751,12.81542 25.37576,34.01309 39.28607,43.59917 12.2318,8.42936 18.83428,14.30215 27.59575,24.54594 7.3337,8.57445 10.53026,13.98177 14.01297,23.70444 1.42838,3.98761 2.61877,5.20652 9.08515,9.30281 12.10318,7.66706 18.84788,15.33158 20.85283,23.69662 0.37439,1.56202 0.0622,3.34632 -0.7874,4.5 -1.38481,1.8805 -1.4677,1.87967 -5.08097,-0.051 -4.74595,-2.53587 -7.79471,-6.3131 -15.39839,-19.07771 -3.41452,-5.73209 -7.55001,-11.37743 -9.18999,-12.54519 -1.63997,-1.16777 -11.84633,-6.69713 -22.6808,-12.28746 -24.16984,-12.47109 -32.50074,-17.90816 -42.29822,-27.60546 -7.014,-6.94229 -8.22239,-8.79216 -15.69156,-24.02151 -4.45079,-9.075 -11.31715,-24.6 -15.25857,-34.5 -7.97981,-20.04356 -16.54925,-38.18159 -23.38663,-49.5 -2.49189,-4.125 -4.5382,-8.0625 -4.54737,-8.75 -0.0349,-2.613 5.01301,-1.06402 12.60502,3.86798 9.31646,6.05225 24.07031,20.6878 30.3399,30.09662 2.45388,3.68255 4.64527,6.51187 4.86976,6.28738 0.38231,-0.38231 -1.47655,-9.53767 -5.98613,-29.48323 -1.05466,-4.66469 -4.37628,-14.20038 -7.38139,-21.19041 -3.00511,-6.99002 -5.46383,-13.18595 -5.46383,-13.76873 0,-1.76594 5.82603,-1.18899 10.12136,1.00232 4.95214,2.5264 13.29748,11.03447 16.12368,16.43809 1.15064,2.2 3.11483,6.925 4.36486,10.5 2.07891,5.94556 2.27778,6.19805 2.33144,2.9601 0.0323,-1.94695 -0.62019,-6.14619 -1.4499,-9.33165 -1.64199,-6.30402 -1.35155,-7.86543 1.29059,-6.93818 7.47907,2.62476 18.40672,23.53102 25.25137,48.30973 3.45111,12.49357 6.19101,21.18965 10.49496,33.30958 2.65031,7.46328 2.9945,7.92168 7.76199,10.33755 4.9887,2.52797 4.9887,2.52797 4.29966,0.19042 -0.37897,-1.28565 -2.44199,-9.33249 -4.58448,-17.88185 -5.68165,-22.6719 -8.42619,-29.46296 -14.27135,-35.31284 -2.66928,-2.67143 -4.64526,-5.06511 -4.39108,-5.31929 1.02412,-1.02412 5.05805,2.47841 8.76127,7.60712 4.32759,5.99343 7.5107,15.28977 13.3672,39.0392 1.96251,7.95843 3.89964,14.80132 4.30473,15.20641 0.40509,0.40509 6.35864,3.05937 13.23011,5.8984 29.35638,12.12894 38.45671,17.41061 50.55177,29.33937 24.13642,23.80454 36.10597,64.51859 25.31819,86.11902 -2.05504,4.11481 -2.05504,4.11481 0.46767,7.83223 4.7618,7.0169 6.9873,17.15779 10.67326,48.63468 2.70634,23.11124 3.51112,27.93558 5.42365,32.51292 2.07453,4.96505 0.70691,6.3785 -3.04721,3.14934 z m -33.07334,-81.1575 c 7.23073,-1.88336 13.92868,-5.25753 13.42659,-6.7638 -1.01849,-3.05545 -20.06159,-10.11155 -30.46605,-11.28869 -6.89254,-0.7798 -12.74586,0.6794 -14.28862,3.56207 -4.16407,7.78064 5.5457,15.91836 19.04758,15.9637 3.59695,0.0121 9.12317,-0.6509 12.2805,-1.47328 z m -30.3204,-33.80898 c 0,-3.67694 -4.08045,-10.69504 -8.61558,-14.81818 -4.26073,-3.87368 -11.63223,-8.96313 -12.18355,-8.4118 -1.04781,1.04781 11.05612,19.59833 14.97799,22.9553 2.29963,1.9684 4.55014,3.5789 5.00114,3.5789 0.451,0 0.82,-1.4869 0.82,-3.30422 z m -31.46768,-38.20614 c -1.34777,-3.58069 -3.89691,-8.61265 -5.66475,-11.18212 -5.56424,-8.08735 -19.91883,-21.58909 -32.27508,-30.35753 -16.43477,-11.6627 -32.72007,-29.39379 -40.69057,-44.30304 -2.5487,-4.76747 -2.93766,-6.27309 -2.09715,-8.11781 1.16925,-2.56623 4.89688,-3.594 10.1597,-2.80118 l 3.53553,0.53261 -3.63287,-3.88029 c -1.99808,-2.13415 -6.00208,-7.25528 -8.89778,-11.38028 -7.98263,-11.37147 -12.30609,-16.23952 -19.7134,-22.19654 -8.06874,-6.48897 -16.84577,-12.11633 -18.1611,-11.64394 -0.52143,0.18726 0.85966,3.26548 3.0691,6.84048 6.33302,10.24723 16.89755,32.77263 25.32628,54 4.25856,10.725 10.67838,25.29583 14.26627,32.37962 10.98386,21.68615 21.78626,31.06144 55.69284,48.33525 11.02786,5.61817 20.38429,10.23067 20.79207,10.25 0.40777,0.0193 -0.36132,-2.89453 -1.70909,-6.47523 z m -25.64997,-76.37199 c -1.15706,-3.42627 -2.27582,-6.05752 -2.48611,-5.84722 -0.21029,0.21029 0.56434,3.18566 1.72141,6.61192 1.15706,3.42627 2.27582,6.05752 2.48611,5.84722 0.21029,-0.21029 -0.56434,-3.18566 -1.72141,-6.61192 z m -4.01409,-5.36765 c -6.87027,-30.64235 -11.38985,-45.1212 -18.15554,-58.1628 -3.75813,-7.2442 -10.25271,-15.38055 -11.37844,-14.25481 -0.25615,0.25615 -0.009,2.19865 0.54869,4.31667 0.55793,2.11802 1.30767,7.90094 1.66609,12.85094 0.45969,6.34866 1.76316,12.38782 4.42462,20.5 2.07513,6.325 4.78412,15.67787 6.01999,20.78416 2.23815,9.24745 2.26929,9.30134 7.87668,13.62816 3.09631,2.3892 6.48689,5.29883 7.53464,6.46584 1.04774,1.16701 2.22179,2.12184 2.60899,2.12184 0.3872,0 -0.12837,-3.7125 -1.14572,-8.25 z m -18.40149,-8.5 c -3.05659,-7.15872 -5.56229,-15.19694 -7.40345,-23.75 -2.75774,-12.81104 -8.72332,-32.88566 -11.24772,-37.84941 -4.1984,-8.25536 -16.05827,-18.22536 -20.78724,-17.4748 -1.97977,0.31423 -1.95128,0.51687 0.92516,6.58085 5.20771,10.97863 9.81762,24.47424 11.52625,33.74336 3.11536,16.90045 5.76684,26.67532 7.90791,29.15313 1.88744,2.18429 16.81366,11.04518 18.96931,11.26105 0.47134,0.0472 0.52075,-0.70168 0.10978,-1.66418 z"
     id="path1" />
  <path
     d="m 871.59571,815.38199 c -1.09399,-2.95734 0.47878,-8.44749 3.65879,-12.77196 1.41556,-1.925 6.08521,-6.926 10.377,-11.11333 7.61634,-7.43095 7.81889,-7.75433 8.45577,-13.5 l 0.65251,-5.88667 -3.87771,3.57159 c -2.13274,1.96438 -5.12379,4.34288 -6.64678,5.28555 -2.69822,1.6701 -2.79117,1.65547 -3.63259,-0.57159 -0.47493,-1.25705 -0.63133,-2.67719 -0.34755,-3.15587 0.28378,-0.47867 -1.49609,0.30883 -3.95527,1.75 -8.1413,4.77112 -10.79552,3.27636 -10.79552,-6.07968 0,-3.465 -0.43954,-6.3 -0.97675,-6.3 -1.32259,0 -8.69004,9.42653 -11.17615,14.29971 -1.48739,2.91552 -2.30108,3.64631 -3.13332,2.81407 -0.81459,-0.81459 -0.8329,-2.2155 -0.0665,-5.08683 1.20209,-4.50361 1.23729,-4.51019 -5.90488,1.1036 -5.76151,4.52858 -8.33312,5.45401 -10.39669,3.7414 -1.12081,-0.93019 -1.42609,-2.46649 -1.08733,-5.47194 l 0.471,-4.17865 -4.76625,5.72722 c -4.8156,5.78653 -9.64878,8.76976 -12.46018,7.69093 -2.24437,-0.86125 -3.48278,-4.95396 -2.8199,-9.31924 l 0.58012,-3.82027 -3.02395,4.09275 c -3.38478,4.58112 -7.84595,8.40725 -9.80265,8.40725 -2.34904,0 -4.43657,-3.08893 -4.43657,-6.56482 v -3.42197 l -4.52353,3.45289 c -9.01974,6.88492 -16.47647,6.43339 -16.47647,-0.9977 v -3.4855 l -5.33086,3.00855 c -2.93197,1.6547 -6.30697,3.00855 -7.5,3.00855 -1.51999,0 -2.16914,0.61339 -2.16914,2.04966 0,2.83195 -2.59031,7.57915 -4.5448,8.32916 -5.26889,2.02186 -8.10597,-0.92581 -5.91237,-6.14285 0.74834,-1.77978 1.56452,-3.23597 1.81374,-3.23597 0.24921,0 0.21169,1.8 -0.0834,4 -0.4162,3.10303 -0.20537,4 0.94017,4 2.47796,0 4.78666,-3.46283 4.78666,-7.17952 0,-2.97708 -1.57259,-9.44085 -2.60064,-10.68933 -0.16705,-0.20287 -2.22568,1.27626 -4.57473,3.28696 -4.4752,3.83061 -7.79854,5.18962 -10.32239,4.22112 -1.12414,-0.43137 -1.50224,-2.22034 -1.50224,-7.10785 0,-3.59226 -0.40338,-6.53138 -0.89641,-6.53138 -1.46387,0 -6.93861,6.73798 -10.2678,12.63698 -2.25234,3.99092 -3.40287,5.19594 -4.19994,4.39887 -0.79708,-0.79708 -0.65975,-2.316 0.50131,-5.54477 1.59912,-4.44696 1.59912,-4.44696 -1.06571,-2.21902 -4.20683,3.51713 -9.66117,6.09936 -11.44089,5.41642 -1.0246,-0.39318 -1.63056,-1.78349 -1.63056,-3.74112 v -3.11542 l -3.85606,3.05405 c -4.29271,3.39989 -8.83217,5.42473 -10.22786,4.56215 -1.35129,-0.83515 -1.1166,-4.03247 0.59705,-8.1338 0.83222,-1.99178 1.39472,-3.73706 1.25,-3.87841 -0.14472,-0.14134 -2.62429,0.46907 -5.51015,1.35647 -3.07487,0.94552 -5.47292,2.3252 -5.7927,3.33274 -0.30012,0.94561 -2.32776,3.32929 -4.50586,5.29707 -5.96841,5.3921 -11.35442,4.57379 -11.35442,-1.72512 0,-4.35695 2.37614,-7.99115 7.39747,-11.31411 4.76102,-3.1507 8.6355,-2.69352 9.59571,1.13225 0.343,1.36662 1.26431,2.48477 2.04735,2.48477 2.47859,0 7.78791,-2.64365 9.76446,-4.86198 2.21435,-2.48523 4.59501,-2.80794 4.59501,-0.62287 0,0.83333 -1.35,3.90722 -3,6.83086 -1.65,2.92363 -3,6.07837 -3,7.01053 0,1.54833 0.25072,1.56517 2.90078,0.19477 1.59543,-0.82503 5.0251,-3.98659 7.62148,-7.02568 2.59638,-3.0391 5.34102,-5.52563 6.09921,-5.52563 1.70551,0 1.70631,-0.0287 -0.12147,4.34576 -1.62941,3.89971 -1.99829,8.65424 -0.67144,8.65424 1.86848,0 10.50433,-6.53152 13.39997,-10.13475 3.61012,-4.49232 5.26467,-4.96645 4.32957,-1.2407 -0.62754,2.50029 -0.49688,2.45294 2.75967,-1 3.78287,-4.01102 4.84026,-4.34399 6.69558,-2.10847 0.86832,1.04627 1.05752,3.2238 0.61055,7.02682 -0.52256,4.44623 -0.35084,5.62465 0.88898,6.10042 2.09654,0.80452 8.70905,-3.73972 12.15621,-8.35397 1.557,-2.08414 3.50591,-4.33754 4.33091,-5.00755 3.05948,-2.4847 8.5109,-0.77675 7.3314,2.29696 -0.34135,0.88955 -1.47809,1.1419 -3.40645,0.75623 -2.09522,-0.41904 -3.06159,-0.14248 -3.50071,1.00185 -0.63123,1.64496 1.14846,8.29392 2.76757,10.33971 1.63338,2.06382 6.04499,-0.37648 14.8517,-8.21528 8.36406,-7.4448 12.35561,-9.1907 13.59975,-5.94854 0.81629,2.12723 -1.33263,4.35922 -6.60863,6.8641 -4.26076,2.02288 -4.53463,2.39358 -4.53463,6.13804 0,3.72583 0.20194,4.00481 3.10352,4.28756 2.27676,0.22187 4.27165,-0.58854 7.48858,-3.04217 6.0312,-4.60014 8.2778,-8.29599 11.8933,-19.56547 4.03009,-12.56174 10.04518,-24.92831 13.92168,-28.62189 3.80679,-3.62715 5.42618,-2.57827 1.83346,1.18753 -4.15636,4.3566 -11.228,21.19546 -15.84909,37.73957 -6.42084,22.98745 6.9092,13.59814 16.63935,-11.72029 4.61384,-12.0055 14.2457,-27.33655 16.04437,-25.53788 0.28398,0.28399 -0.38271,2.48325 -1.48154,4.88725 -16.0221,35.05304 -20.29286,52.16283 -11.59831,46.46594 3.40154,-2.22877 6.95395,-6.12504 12.16729,-13.34502 6.49921,-9.00079 8.31307,-7.95071 4.33689,2.51073 -2.49168,6.55567 -2.5121,8.23927 -0.0999,8.23927 2.6303,0 11.49519,-6.84896 15.34017,-11.85173 1.75353,-2.28155 3.59301,-4.14827 4.08774,-4.14827 0.49472,0 0.69841,1.3701 0.45264,3.04467 -0.44687,3.04466 -0.44687,3.04466 3.67435,-1 2.26667,-2.22457 4.40954,-4.04467 4.76193,-4.04467 0.3524,0 1.32964,0.68891 2.17164,1.53092 1.19984,1.19984 1.40028,2.9299 0.92682,8 -0.55585,5.95244 -0.44846,6.46908 1.34472,6.46908 2.24784,0 10.12949,-4.78756 12.34039,-7.49593 3.20864,-3.93062 9.30319,-7.50407 12.79826,-7.50407 3.49817,0 3.49817,0 2.87579,8.07098 l -0.62239,8.07099 6.55805,-5.15377 c 7.11434,-5.59097 9.82374,-6.30746 3.67384,-0.97155 -11.10419,9.63451 -11.39598,9.99245 -12.87585,15.7946 -2.30696,9.04498 -6.9171,17.45617 -12.35614,22.54375 -5.62604,5.2625 -9.56562,6.13285 -10.94021,2.41696 z m 11.2189,-6.02091 c 1.3385,-1.78808 3.20505,-4.77491 4.14789,-6.63741 1.93755,-3.82746 5.46841,-14.11364 4.84469,-14.11364 -0.22468,0 -2.71058,2.1375 -5.52421,4.75 -8.46785,7.86252 -14.74412,18.97116 -12.17184,21.54345 1.08347,1.08347 6.16667,-2.15353 8.70347,-5.5424 z M 680.95103,778.0767 c 1.94333,-1.94334 3.51919,-3.85584 3.50191,-4.25 -0.0173,-0.39417 -1.16381,-1.54141 -2.54783,-2.54943 -2.05677,-1.498 -2.79368,-1.60262 -4.03451,-0.57283 -2.08428,1.7298 -4.38624,6.37752 -4.38624,8.85593 0,3.20528 3.46654,2.51645 7.46667,-1.48367 z m 209.74898,-4.17908 c 4.87704,-4.80371 5.98886,-7.28759 3.26201,-7.28759 -2.24937,0 -10.47766,7.9532 -10.47766,10.12736 0,3.0197 2.10968,2.18942 7.21565,-2.83977 z m -102.7784,-6.98467 c 0.27499,-0.71661 0.12479,-1.30292 -0.33378,-1.30292 -1.30457,0 -6.10347,4.03281 -6.10347,5.12912 0,1.2972 5.79238,-2.1457 6.43725,-3.8262 z m -103.43725,1.7561 c 0,-2.18696 -1.56205,-3.57666 -2.43415,-2.16557 -0.73067,1.18225 0.36678,4.10655 1.54114,4.10655 0.49115,0 0.89301,-0.87344 0.89301,-1.94098 z m 141.35768,-21.05902 c 0.33819,-1.375 -0.70678,0.2 -2.32215,3.5 -1.61538,3.3 -2.93825,6.45 -2.93973,7 -0.004,1.48565 4.5481,-7.59795 5.26188,-10.5 z M 631.98436,793.656 c -1.1,-0.45499 -3.07929,-1.98906 -4.39842,-3.40905 -4.89482,-5.26906 -3.61291,-24.54098 2.43797,-36.65164 3.61807,-7.24148 11.32937,-16.82536 16.85015,-20.94197 7.93403,-5.91607 11.05989,-7.18192 16.90013,-6.8439 4.51407,0.26127 5.36179,0.65316 6.48006,2.99565 0.99698,2.08842 1.03525,3.69317 0.17002,7.12931 -1.23542,4.90627 -6.23102,11.67563 -8.61631,11.67563 -1.07165,0 -0.57982,-1.08309 1.6398,-3.61109 3.74284,-4.26286 5.0366,-7.30603 5.0366,-11.84702 0,-5.43954 -3.57465,-5.92549 -12.5,-1.69927 -15.20761,7.20092 -29.99094,33.06871 -28.00097,48.99594 0.53531,4.28449 1.34093,6.14366 3.56071,8.21724 3.53054,3.29803 7.50503,4.17801 12.57347,2.78387 5.90465,-1.62415 10.63755,-4.3192 17.25193,-9.82375 3.31499,-2.75875 6.36329,-5.01592 6.774,-5.01592 0.41072,0 -1.03207,1.84298 -3.20619,4.09551 -4.57414,4.73911 -15.41255,12.05859 -20.35217,13.7444 -3.88393,1.32551 -9.66577,1.42006 -12.60078,0.20606 z m 207.5,-34.97265 c 0,-1.43109 0.64223,-2.07332 2.07332,-2.07332 1.4311,0 1.96962,0.53852 1.73852,1.73852 -0.50201,2.60673 -3.81184,2.89745 -3.81184,0.3348 z m 12.33291,-40.17062 c -4.06227,-1.17608 -8.33291,-6.23748 -8.33291,-9.87583 0,-1.97578 1.05794,-3.74857 3.5348,-5.92328 1.94413,-1.70697 4.00914,-3.10359 4.58889,-3.10359 0.57975,0 -0.1109,-1.38453 -1.5348,-3.07673 -1.42389,-1.69219 -2.58889,-3.90943 -2.58889,-4.92719 0,-1.01776 1.5846,-3.15663 3.52132,-4.75305 3.52133,-2.90257 3.52133,-2.90257 0.99771,-4.05241 -6.12002,-2.78846 -8.50518,-13.42066 -4.48862,-20.00865 3.24955,-5.32994 8.85041,-7.21201 21.12774,-7.09963 5.68802,0.0521 11.46685,-0.0577 12.84185,-0.24384 1.94617,-0.26351 2.5,0.10457 2.5,1.6615 0,1.64551 -0.77077,2.05536 -4.34859,2.31232 -4.225,0.30343 -4.29902,0.36709 -2.60418,2.23986 0.9784,1.08113 1.96246,4.19692 2.24099,7.09554 0.91067,9.47752 -3.85401,14.15383 -16.20857,15.90795 -3.64588,0.51765 -6.66948,1.58972 -7.87033,2.79056 -1.9333,1.93331 -1.92971,1.96268 0.42035,3.43529 1.42217,0.89116 6.05286,1.70483 11.57635,2.03411 11.2155,0.66859 15.95656,2.63255 17.96626,7.44245 1.11416,2.66655 1.18424,4.14664 0.32029,6.76443 -1.51185,4.58095 -6.37161,9.0779 -11.81452,10.93249 -4.94156,1.68376 -16.74051,1.92557 -21.84514,0.4477 z m 24.60628,-5.34444 c 2.99646,-2.87079 3.92621,-6.6491 2.27515,-9.2457 -1.27259,-2.00137 -5.64138,-3.16174 -14.65872,-3.8934 -8.13505,-0.66007 -8.76843,-0.56787 -11.09167,1.61471 -2.62447,2.46556 -3.22848,6.66907 -1.43881,10.01311 1.96056,3.66334 5.96812,4.99633 14.16405,4.71121 6.96136,-0.24218 7.97893,-0.54507 10.75,-3.19993 z m -7.85588,-32.42464 c 1.8787,-1.52128 2.37149,-3.04675 2.66508,-8.25 0.28956,-5.13189 -0.0427,-7.02578 -1.69456,-9.65855 -1.95673,-3.1187 -5.44958,-5.22507 -8.66438,-5.22507 -2.45613,0 -6.21348,4.54508 -6.93447,8.38827 -1.56913,8.36419 2.91076,16.61173 9.02313,16.61173 1.81518,0 4.33752,-0.83987 5.6052,-1.86638 z m 74.83104,35.94634 c 3.126,-2.92003 3.126,-2.92003 2.9549,-23.75 -0.2183,-26.57457 -0.6673,-30.52198 -3.6193,-31.81709 -1.2375,-0.54292 -2.2439,-1.21792 -2.2366,-1.5 0.01,-0.28208 2.1449,-1.22773 4.75,-2.10144 2.6052,-0.87372 5.5241,-1.93436 6.4866,-2.35699 1.4561,-0.63934 1.75,-0.24653 1.75,2.33857 0,1.70885 0.1125,3.10511 0.25,3.1028 0.1375,-0.002 2.4638,-1.1273 5.1695,-2.5 6.5069,-3.30117 13.9307,-3.39564 18.68266,-0.23774 4.59433,3.05315 7.89933,9.83881 7.89233,16.20382 -0.011,10.13435 -3.5092,17.21018 -10.72303,21.69121 -3.19096,1.98214 -5.04646,2.33391 -12.05646,2.2857 l -8.285,-0.057 0.285,9.05909 c 0.2611,8.29885 0.4739,9.14193 2.535,10.04622 4.2112,1.84755 2.2637,2.51287 -7.3557,2.51287 h -9.6058 z m 28.7585,-23.2424 c 6.37936,-5.99305 6.59416,-23.33332 0.3631,-29.30308 -3.4338,-3.28986 -10.3883,-4.45958 -15.0454,-2.53058 -3.0425,1.26026 -3.0425,1.26026 -2.7665,15.87818 l 0.2759,14.61792 4.5,2.29939 c 5.1803,2.647 9.1524,2.34554 12.6729,-0.96183 z m -419.17285,3.66029 c -7.30606,-2.58335 -12.47881,-10.47692 -12.49442,-19.06635 -0.0101,-5.53818 2.94591,-13.31632 6.35704,-16.72745 10.00797,-10.00797 28.68904,-6.19331 30.35102,6.19766 l 0.5497,4.09829 h -14.7589 -14.7589 l 0.45879,4.75 c 0.25234,2.6125 1.28969,6.49823 2.30522,8.63496 3.63746,7.6534 14.76309,9.69541 22.14545,4.06461 1.77212,-1.35166 3.44493,-2.09689 3.71738,-1.65607 0.92542,1.49738 -4.69566,7.44891 -8.79285,9.30975 -4.848,2.20185 -9.61558,2.3266 -15.07953,0.3946 z m 16.9728,-29.45383 c 0.32495,-0.52579 -0.0549,-2.50152 -0.84421,-4.39051 -2.87722,-6.88614 -13.5758,-7.0677 -17.70225,-0.30042 -3.28309,5.38421 -2.91023,5.64691 8.01464,5.64691 5.46754,0 10.20686,-0.43019 10.53182,-0.95598 z m 95.5272,29.83376 c -10.34641,-3.09594 -16.749,-14.50917 -14.00688,-24.96855 1.86552,-7.11568 5.50275,-11.76622 11.32125,-14.47529 12.28154,-5.71822 25.82183,-0.64136 29.70989,11.13957 0.65787,1.99338 1.01376,6.48854 0.79085,9.98924 -0.32734,5.14075 -0.99794,7.18305 -3.48671,10.6187 -1.69479,2.33958 -4.78392,5.1373 -6.86474,6.21715 -4.41361,2.29046 -12.47154,2.97297 -17.46366,1.47918 z m 13.6977,-3.03788 c 7.22206,-5.97608 7.02681,-27.6245 -0.30647,-33.97861 -3.03248,-2.62757 -7.82099,-3.20753 -11.36246,-1.37617 -6.45197,3.33645 -9.29207,13.11261 -7.00705,24.11953 0.95767,4.61304 2.05293,6.7053 5.11094,9.7633 3.54415,3.54415 4.25203,3.84379 7.91892,3.35196 2.21477,-0.29707 4.75552,-1.14307 5.64612,-1.88001 z m 53.3023,3.03937 c -3.27336,-1.30143 -7.77397,-5.61943 -9.77592,-9.37927 -1.00009,-1.87824 -1.62106,-5.61744 -1.66073,-10 -0.0515,-5.68668 0.40569,-7.83659 2.43665,-11.45903 4.71759,-8.41434 16.39618,-12.95838 26.28602,-10.22766 l 3.71398,1.02548 v -13.34797 c 0,-10.80118 -0.29983,-13.64779 -1.57143,-14.91939 -0.86428,-0.86429 -2.06428,-1.57143 -2.66667,-1.57143 -2.04678,0 0.21655,-1.32174 5.37265,-3.13753 2.8274,-0.9957 5.52879,-1.57053 6.00309,-1.2774 0.4743,0.29313 0.86236,15.71641 0.86236,34.27395 0,35.2979 0.10186,36.14098 4.36667,36.14098 1.08166,0 1.65142,0.31524 1.26613,0.70053 -1.13648,1.13648 -11.91964,4.24022 -12.81312,3.68803 -0.45082,-0.27863 -0.81968,-1.58593 -0.81968,-2.90511 0,-2.39852 0,-2.39852 -6.25,0.55822 -6.45961,3.05591 -10.43881,3.55165 -14.75,1.8376 z m 18.27796,-6.53985 c 2.77796,-1.4197 2.77796,-1.4197 2.5,-15.02356 -0.27796,-13.60386 -0.27796,-13.60386 -3.10315,-15.70986 -4.08134,-3.04239 -11.74916,-2.80836 -15.30081,0.46698 -3.72364,3.43396 -5.37743,7.95927 -5.35204,14.6449 0.0227,5.9878 2.36093,12.70632 5.25563,15.10151 3.93288,3.25421 10.24868,3.45948 16.00037,0.52003 z m 161.97199,6.55318 c -4.25,-1.0103 -4.25,-1.0103 -4.25,-6.95145 0,-3.2941 0.4456,-5.94115 1,-5.94115 0.55,0 1,0.57247 1,1.27216 0,2.59576 6.1425,8.69023 9.8904,9.81314 3.1208,0.935 4.3373,0.84835 6.9328,-0.49385 5.5635,-2.87701 5.2358,-10.36828 -0.5584,-12.76406 -15.7241,-6.50154 -17.2648,-7.80486 -17.2648,-14.60488 0,-5.674 1.9598,-8.88992 6.5986,-10.82814 4.0043,-1.6731 10.9206,-1.80656 15.2582,-0.29444 3.2755,1.14182 4.5901,3.77695 3.9761,7.97003 -0.4956,3.38495 -2.3935,3.40501 -3.7873,0.04 -1.6924,-4.08581 -4.1671,-6.09316 -8.3481,-6.77164 -2.9239,-0.4745 -4.0047,-0.12202 -6.124,1.99728 -1.4154,1.41541 -2.5735,3.29041 -2.5735,4.16667 0,2.58116 4.3639,5.80006 12.0123,8.86055 5.3039,2.12235 7.6492,3.67428 9.0673,6 3.6837,6.04105 1.6768,14.16042 -4.2586,17.22976 -3.8931,2.01318 -12.9143,2.64468 -18.571,1.3 z M 1014.7344,697.088 c -1.2375,-0.87526 -2.25,-2.24086 -2.25,-3.03467 0,-1.92476 -0.3051,-1.8546 -4.5951,1.0567 -2.6418,1.79273 -4.9883,2.491 -8.29435,2.4682 -6.6455,-0.0458 -10.11062,-3.43423 -10.11062,-9.88668 0,-4.83496 4.32412,-8.67207 13.50007,-11.97964 8,-2.8837 8,-2.8837 8.3034,-7.45875 0.3573,-5.38759 -0.9964,-8.3858 -4.3642,-9.66625 -3.8866,-1.47768 -6.9005,0.28222 -8.26125,4.82379 -1.2186,4.06751 -3.0506,5.56912 -5.6006,4.59063 -2.3033,-0.88386 -2.73962,-3.4947 -1.0221,-6.116 3.2483,-4.95737 14.33355,-7.78889 20.82735,-5.31993 5.0873,1.9342 6.0739,5.13776 6.6174,21.48854 0.5,15.04165 0.5,15.04165 3.3604,15.54887 2.755,0.48855 2.7918,0.56876 1,2.17931 -2.8772,2.586 -6.5551,3.11319 -9.1104,1.30588 z m -4.9527,-6.36614 c 1.4639,-1.43518 1.7422,-3.08978 1.5,-8.91906 l -0.2973,-7.15699 -5.4105,2.51046 c -6.36835,2.95495 -8.01445,4.82037 -8.05765,9.13118 -0.023,2.28608 0.7275,3.77468 2.67495,5.30652 3.041,2.39214 6.5901,2.0694 9.5905,-0.87211 z m 29.7966,6.59665 c -12.3737,-3.95009 -16.2606,-23.61538 -6.7979,-34.39279 1.7528,-1.99631 4.9907,-4.44913 7.1954,-5.45071 8.5781,-3.89694 21.6272,-1.30749 22.3185,4.42886 0.2189,1.81588 -0.3289,2.91358 -1.8641,3.73514 -1.9212,1.02824 -2.6592,0.68729 -6.3477,-2.93274 -3.2979,-3.23659 -4.9163,-4.09624 -7.7116,-4.09624 -3.9151,0 -7.0258,2.57995 -8.8199,7.3151 -1.6566,4.3724 -1.3104,15.36879 0.6114,19.41873 3.1758,6.69251 14.1117,9.06493 21.1588,4.59017 1.2852,-0.81609 2.5995,-1.22108 2.9206,-0.89996 0.9897,0.9897 -3.8678,5.45098 -8.2391,7.56712 -4.5145,2.18541 -9.1098,2.41394 -14.4244,0.71732 z m 36.9132,-0.30146 c -1.921,-0.83309 -4.5513,-2.50297 -5.845,-3.71086 -9.8056,-9.15532 -6.7527,-29.8432 5.2623,-35.65956 5.0034,-2.42211 13.3985,-2.69666 17.5061,-0.57252 4.5159,2.33527 8.0695,7.22895 8.0695,11.11265 0,3.42327 0,3.42327 -14.5,3.42327 h -14.5 v 3.9349 c 0,5.05558 1.4695,8.87565 4.7286,12.29198 5.2101,5.46166 12.7691,5.96044 19.6424,1.29612 1.9646,-1.33326 3.8189,-2.02476 4.1205,-1.53668 0.3017,0.48808 -1.148,2.66605 -3.2215,4.83993 -5.6143,5.88604 -14.0581,7.70515 -21.2629,4.58077 z m 16.9929,-31.40702 c 0,-5.88428 -6.3495,-9.28019 -12.7773,-6.83374 -3.2775,1.24744 -8.2227,6.64902 -8.2227,8.98162 0,0.46867 4.725,0.85212 10.5,0.85212 10.5,0 10.5,0 10.5,-3 z m -643.00004,31 c 0,-0.55 0.7875,-1.00689 1.75,-1.01531 4.69146,-0.0411 4.72082,-0.21408 5.25,-30.94784 l 0.5,-29.03882 -7.11514,9.8e-4 c -8.22801,10e-4 -11.45936,1.79956 -13.53197,7.53127 -0.69007,1.90834 -1.61427,3.46972 -2.05378,3.46972 -0.93288,0 -1.05111,-8.45759 -0.16447,-11.76664 0.60732,-2.26663 0.60732,-2.26663 26.23634,-2 l 25.62902,0.26664 0.50452,6.3427 c 0.27748,3.48849 0.22779,6.51372 -0.11042,6.72275 -0.33821,0.20903 -1.43582,-1.44036 -2.43913,-3.66531 -2.5386,-5.6296 -4.78086,-6.90014 -12.17748,-6.90014 h -6.27749 v 28.42857 c 0,24.51082 0.21656,28.64513 1.57143,30 0.86428,0.86429 2.43928,1.57143 3.5,1.57143 1.06071,0 1.92857,0.45 1.92857,1 0,0.6087 -4.5,1 -11.5,1 -7,0 -11.5,-0.3913 -11.5,-1 z m 40,0.23713 c 0,-0.41958 1.0125,-1.20708 2.25,-1.75 2.25,-0.98713 2.25,-0.98713 2.51407,-32.75653 0.26408,-31.7694 0.26408,-31.7694 -2.5,-32.86151 -2.76407,-1.09211 -2.76407,-1.09211 1.61231,-2.99327 9.89439,-4.29825 9.12362,-5.69177 9.12362,16.49516 v 19.5878 l 4.49002,-3.16486 c 3.50985,-2.47396 5.7979,-3.25946 10.48117,-3.59822 5.76287,-0.41685 6.12523,-0.29928 9.50998,3.08547 3.51883,3.51883 3.51883,3.51883 3.51883,18.18457 0,14.56717 0.74404,18.53426 3.47617,18.53426 0.77319,0 1.68391,0.45 2.02383,1 0.39556,0.64003 -2.82295,1 -8.94098,1 -9.57585,0 -11.51618,-0.66709 -7.30902,-2.51287 2.16737,-0.95088 2.26016,-1.52782 2.52658,-15.71055 0.25656,-13.65765 0.12989,-14.87011 -1.75,-16.75 -2.86054,-2.86054 -9.68191,-2.73344 -14.1287,0.26325 -3.39788,2.28984 -3.39788,2.28984 -3.39788,16.75 0,14.03658 0.0659,14.48909 2.25,15.4473 4.15675,1.82367 2.30543,2.51287 -6.75,2.51287 -4.95,0 -9,-0.34329 -9,-0.76287 z m 110,0 c 0,-0.41958 1.0125,-1.20708 2.25,-1.75 2.25,-0.98713 2.25,-0.98713 2.25,-32.4576 0,-31.47046 0,-31.47046 -2.26771,-32.60104 -1.24724,-0.62182 -2.49552,-1.35838 -2.77394,-1.63681 -0.53931,-0.53931 10.46002,-4.79168 12.39432,-4.79168 0.82384,0 1.14733,5.49222 1.14733,19.47939 v 19.47939 l 4.37616,-3.0846 c 3.44286,-2.42675 5.74691,-3.19463 10.80342,-3.60052 5.82765,-0.46779 6.70213,-0.27962 9.37383,2.01702 2.94659,2.53294 2.94659,2.53294 3.44659,18.71742 0.5,16.18448 0.5,16.18448 3.5,18.58322 3,2.39875 3,2.39875 -6.75,2.40371 -5.83664,0.003 -9.75,-0.3964 -9.75,-0.99503 0,-0.55 0.6199,-1 1.37756,-1 2.925,0 3.56455,-2.82724 3.80573,-16.82385 0.22947,-13.31733 0.11329,-14.32401 -1.88351,-16.32081 -3.08445,-3.08445 -9.19243,-2.85392 -14.32179,0.54052 -4.03251,2.6686 -4.03251,2.6686 -3.75525,16.88637 0.26634,13.65772 0.36589,14.25665 2.52726,15.2049 4.15675,1.82367 2.30543,2.51287 -6.75,2.51287 -4.95,0 -9,-0.34329 -9,-0.76287 z m 98,0 c 0,-0.41958 1.0125,-1.20708 2.25,-1.75 2.25,-0.98713 2.25,-0.98713 2.51399,-32.69786 0.264,-31.71073 0.264,-31.71073 -2.5,-33.17289 -2.06704,-1.09347 -2.38576,-1.60347 -1.26399,-2.0226 4.82033,-1.801 10.37046,-3.59378 11.12573,-3.59378 0.48192,0 0.87427,15.28784 0.87427,34.06574 0,33.96793 0.36346,37.93426 3.47617,37.93426 0.77319,0 1.68391,0.45 2.02383,1 0.39556,0.64003 -2.82295,1 -8.94098,1 -5.25746,0 -9.55902,-0.34329 -9.55902,-0.76287 z m 73,0 c 0,-0.41958 1.0125,-1.20708 2.25,-1.75 2.15791,-0.94673 2.26177,-1.56016 2.53751,-14.98713 0.15814,-7.7 0.0446,-14.98251 -0.25232,-16.18335 -0.29691,-1.20084 -1.43879,-2.46867 -2.53751,-2.81739 -1.09873,-0.34872 -1.99768,-0.97153 -1.99768,-1.38403 0,-0.60429 5.42492,-2.65044 11.5,-4.33752 0.62989,-0.17493 1.18506,6.93948 1.5,19.22229 0.48812,19.03659 0.55347,19.52346 2.75,20.48713 4.15675,1.82367 2.30543,2.51287 -6.75,2.51287 -4.95,0 -9,-0.34329 -9,-0.76287 z m 22,-0.23713 c 0,-0.55 0.64286,-1 1.42857,-1 0.78572,0 2.13572,-0.70714 3,-1.57143 1.27866,-1.27866 1.57143,-4.17534 1.57143,-15.54775 0,-13.84344 -0.0253,-13.99973 -2.65674,-16.4385 -1.4612,-1.3542 -2.4737,-2.57607 -2.25,-2.71526 0.72014,-0.44808 10.65364,-3.72706 11.29095,-3.72706 0.33869,0 0.61579,1.35 0.61579,3 0,1.65 0.23182,3 0.51515,3 0.28333,0 2.90722,-1.35 5.83086,-3 8.63073,-4.87088 17.37633,-3.90695 20.87904,2.30128 0.7646,1.35518 1.43896,8.14533 1.75774,17.69872 0.49642,14.87692 0.60766,15.53968 2.76721,16.48713 4.15675,1.82367 2.30543,2.51287 -6.75,2.51287 -9.05543,0 -10.90675,-0.6892 -6.75,-2.51287 2.15975,-0.94754 2.26109,-1.55194 2.52643,-15.06867 0.25893,-13.19043 0.13809,-14.25741 -1.90958,-16.8606 -1.9832,-2.52123 -2.65826,-2.73983 -7.27643,-2.35625 -2.79973,0.23253 -6.26104,1.19024 -7.6918,2.12822 -2.50986,1.64543 -2.62523,2.15718 -3.27925,14.54576 -0.69941,13.24823 0.0531,18.12441 2.79686,18.12441 0.80616,0 1.74385,0.45 2.08377,1 0.39556,0.64003 -2.82295,1 -8.94098,1 -5.70601,0 -9.55902,-0.40308 -9.55902,-1 z m -18.4207,-55.91237 c -3.5621,-3.93608 0.22315,-9.23727 5.41838,-7.58837 2.35826,0.74849 3.71969,5.13446 2.29871,7.40552 -1.50561,2.40631 -5.61672,2.50372 -7.71709,0.18285 z"
     style="fill:#1a1a1a;fill-opacity:1;stroke:#000000;stroke-width:1.4;stroke-linecap:round;stroke-linejoin:round;stroke-dasharray:none;stroke-opacity:1"
     id="path1-9" />
  <circle
     style="fill:none;fill-rule:evenodd;stroke:#070000;stroke-width:2.851;stroke-linecap:round;stroke-linejoin:round;stroke-dasharray:none;stroke-opacity:1"
     id="path2"
     cx="768"
     cy="512"
     r="393.98517" />
</svg>
